<svg height="512" viewBox="0 0 512 512" width="512" xmlns="http://www.w3.org/2000/svg"><g id="Blue"><g fill="#6498f6"><path d="m200.236 93.3a163.013 163.013 0 0 1 183.4 20.359h-19.484a24 24 0 0 0 0 48h73.411a24 24 0 0 0 24-24v-73.41a24 24 0 0 0 -48 0v11.819a211.072 211.072 0 0 0 -236.026-25.061 24 24 0 1 0 22.7 42.293z"/><path d="m198.9 379.83a163.01 163.01 0 0 1 -84.04-157.115 165.511 165.511 0 0 1 2.388-17.027l10.252 17.748a24 24 0 1 0 41.568-24l-36.707-63.576a24 24 0 0 0 -32.784-8.785l-63.577 36.706a24 24 0 0 0 24 41.569l9.522-5.5q-1.635 9.235-2.477 18.679a211.021 211.021 0 0 0 108.791 203.394 24 24 0 1 0 23.064-42.093z"/><path d="m464 211.806h-.116a24 24 0 0 0 -23.884 24.114c.024 5.035-.188 10.143-.63 15.186a162.927 162.927 0 0 1 -108.2 139.468l9.75-16.887a24 24 0 0 0 -41.569-24l-36.651 63.477-.066.115a24 24 0 0 0 8.794 32.769l63.576 36.7a24 24 0 0 0 24-41.569l-10.264-5.926a210.9 210.9 0 0 0 138.447-179.96c.571-6.5.843-13.1.813-19.6a24 24 0 0 0 -24-23.887z"/></g><path d="m437.564 167.632h-73.411a32 32 0 0 1 -4.251-63.719 155.222 155.222 0 0 0 -155.882-5.592 32 32 0 1 1 -30.266-56.39 219.187 219.187 0 0 1 232.115 15.863 32 32 0 0 1 63.695 4.427v73.411a32.037 32.037 0 0 1 -32 32zm-73.411-48a16 16 0 0 0 0 32h73.411a16.019 16.019 0 0 0 16-16v-73.411a16 16 0 0 0 -32 0v11.819a8 8 0 0 1 -13.183 6.095 203.072 203.072 0 0 0 -227.06-24.107 16 16 0 0 0 15.132 28.2 171.012 171.012 0 0 1 192.419 21.361 8 8 0 0 1 -5.239 14.047z" fill="#0444b7"/><path d="m187.361 432.881a32.042 32.042 0 0 1 -15.361-3.943 219.024 219.024 0 0 1 -112.913-211.1q.147-1.675.321-3.364a32 32 0 0 1 -27.4-57.617l63.575-36.706a32 32 0 0 1 43.717 11.709l36.706 63.576a32.005 32.005 0 0 1 -27.689 48 32.123 32.123 0 0 1 -25.917-13.204 155.023 155.023 0 0 0 80.361 142.582 32 32 0 0 1 -15.4 60.067zm-117.827-241.028a8 8 0 0 1 7.879 9.393c-1.065 6.026-1.868 12.076-2.384 17.983a203.015 203.015 0 0 0 104.664 195.678 15.777 15.777 0 0 0 7.668 1.974 16 16 0 0 0 7.711-30.035 171.011 171.011 0 0 1 -88.165-164.828 174.442 174.442 0 0 1 2.5-17.85 8 8 0 0 1 14.783-2.48l10.247 17.748a15.99 15.99 0 0 0 21.856 5.856 16 16 0 0 0 5.857-21.856l-36.704-63.576a16 16 0 0 0 -21.857-5.86l-63.575 36.709a16 16 0 1 0 16 27.712l9.52-5.5a7.992 7.992 0 0 1 4-1.068z" fill="#0444b7"/><path d="m346.983 496a32.006 32.006 0 0 1 -15.977-4.291l-63.577-36.709a32.041 32.041 0 0 1 -11.725-43.69l.066-.116 36.653-63.482a32 32 0 0 1 57.4 27.947 154.718 154.718 0 0 0 81.577-123.222c.421-4.8.623-9.662.6-14.451a32.038 32.038 0 0 1 31.847-32.152h.153a32.068 32.068 0 0 1 32 31.848c.031 6.759-.252 13.6-.843 20.338a218.931 218.931 0 0 1 -64.574 136.98 221.179 221.179 0 0 1 -64 43.679 32.012 32.012 0 0 1 8.134 41.321 32.1 32.1 0 0 1 -27.734 16zm-26.821-148.292a16.1 16.1 0 0 0 -4.167.552 15.889 15.889 0 0 0 -9.715 7.454l-36.713 63.586a16.023 16.023 0 0 0 5.862 21.846l63.576 36.706a16 16 0 1 0 16-27.713l-10.264-5.926a8 8 0 0 1 1.277-14.451 202.894 202.894 0 0 0 133.2-173.14c.549-6.251.812-12.6.783-18.867a16.034 16.034 0 0 0 -16-15.923v-8l-.034 8a16.028 16.028 0 0 0 -15.967 16.078c.025 5.278-.2 10.636-.66 15.923a170.934 170.934 0 0 1 -113.508 146.313 8 8 0 0 1 -9.59-11.544l9.75-16.887a16.011 16.011 0 0 0 -13.83-24.007z" fill="#0444b7"/></g></svg>